<?xml version="1.0" standalone="no"?>
<!DOCTYPE svg PUBLIC "-//W3C//DTD SVG 20010904//EN"
 "http://www.w3.org/TR/2001/REC-SVG-20010904/DTD/svg10.dtd">
<svg version="1.0" xmlns="http://www.w3.org/2000/svg"
 width="1024.000000pt" height="1024.000000pt" viewBox="0 0 1024.000000 1024.000000"
 preserveAspectRatio="xMidYMid meet">

<g transform="translate(0.000000,1024.000000) scale(0.100000,-0.100000)"
fill="#000000" stroke="none">
<path d="M4932 7653 c-162 -246 -553 -829 -1566 -2338 -195 -292 -198 -296
-180 -317 11 -11 98 -80 194 -154 96 -74 189 -146 207 -160 l32 -26 154 233
c84 129 183 279 219 334 36 55 138 213 228 350 196 299 337 516 660 1015 133
206 243 376 244 377 0 1 42 -62 92 -140 51 -78 197 -304 326 -502 129 -198
251 -386 271 -418 l37 -57 -242 2 -241 3 -119 195 c-66 107 -120 196 -122 197
-1 2 -94 -144 -206 -324 -112 -181 -236 -379 -276 -440 l-73 -113 797 0 797 0
37 -57 c131 -207 386 -604 403 -626 l20 -28 219 168 c217 167 254 201 228 210
-7 3 -102 138 -209 302 -108 163 -437 658 -731 1101 -294 443 -638 961 -764
1153 -127 191 -234 347 -238 347 -4 0 -93 -129 -198 -287z"/>
<path d="M6470 7130 c6 -11 13 -20 16 -20 2 0 0 9 -6 20 -6 11 -13 20 -16 20
-2 0 0 -9 6 -20z"/>
<path d="M6630 6890 c6 -11 13 -20 16 -20 2 0 0 9 -6 20 -6 11 -13 20 -16 20
-2 0 0 -9 6 -20z"/>
<path d="M3175 5690 c0 -311 1 -438 2 -283 2 156 2 410 0 565 -1 156 -2 29 -2
-282z"/>
<path d="M7065 5830 c0 -212 1 -298 2 -192 2 105 2 279 0 385 -1 105 -2 19 -2
-193z"/>
<path d="M7063 5385 c0 -33 2 -45 4 -27 2 18 2 45 0 60 -2 15 -4 0 -4 -33z"/>
<path d="M4122 4680 c-107 -171 -192 -314 -190 -319 3 -10 68 -62 301 -243 77
-60 142 -108 145 -107 7 0 309 473 326 510 9 18 24 19 411 19 l403 0 89 -142
c218 -346 245 -388 254 -388 5 0 74 51 152 113 78 62 171 135 206 162 35 28
70 55 78 62 16 12 18 9 -292 516 l-77 127 -807 0 -806 0 -193 -310z"/>
<path d="M2190 3503 c-18 -43 -83 -197 -145 -343 -154 -362 -275 -654 -275
-663 0 -4 51 -7 113 -7 l112 0 55 135 55 135 226 0 226 0 56 -132 55 -133 111
-3 c61 -1 111 -1 111 1 0 9 -335 803 -423 1002 l-36 80 -104 3 -105 3 -32 -78z
m169 -248 c13 -33 45 -113 72 -177 27 -65 49 -120 49 -123 0 -8 -300 -6 -300
3 -1 17 146 370 151 364 4 -4 16 -34 28 -67z"/>
<path d="M2840 3485 l0 -95 185 0 185 0 0 -450 0 -450 105 0 105 0 0 450 0
450 180 0 181 0 -3 93 -3 92 -467 3 -468 2 0 -95z"/>
<path d="M3990 3035 l0 -545 105 0 105 0 0 240 0 240 250 0 250 0 0 -240 0
-240 105 0 105 0 0 545 0 545 -105 0 -105 0 0 -205 0 -205 -250 0 -250 0 0
205 0 205 -105 0 -105 0 0 -545z"/>
<path d="M5250 3035 l0 -545 110 0 110 0 0 205 0 205 83 0 82 -1 129 -204 129
-205 123 0 c68 0 124 2 124 5 0 6 -136 206 -223 329 -27 37 -50 73 -53 80 -2
6 22 21 56 34 123 48 192 156 192 302 0 183 -103 299 -292 329 -36 6 -179 11
-317 11 l-253 0 0 -545z m565 329 c72 -37 96 -129 53 -205 -34 -62 -93 -81
-260 -87 l-138 -5 0 162 0 162 153 -3 c130 -3 158 -6 192 -24z"/>
<path d="M6676 3343 c-55 -131 -157 -374 -228 -539 -70 -166 -128 -305 -128
-308 0 -4 51 -5 112 -4 l113 3 55 133 54 132 229 -2 229 -3 57 -130 57 -130
113 -3 c89 -2 112 0 108 10 -3 7 -64 150 -135 318 -71 168 -173 407 -227 533
l-98 227 -106 0 -106 0 -99 -237z m344 -345 l20 -48 -155 0 c-93 0 -155 4
-155 10 0 5 7 24 15 42 16 35 111 267 127 308 9 25 24 -4 148 -312z"/>
<path d="M7680 3035 l0 -545 380 0 380 0 0 105 0 105 -277 0 -278 0 0 437 0
438 -102 3 -103 3 0 -546z"/>
<path d="M2734 2054 c3 -11 22 -73 42 -139 20 -66 54 -176 75 -245 21 -69 47
-151 56 -182 l18 -58 71 0 71 0 52 163 c29 89 56 171 60 182 6 14 23 -29 67
-163 l59 -181 72 -1 c60 0 72 3 77 18 4 15 66 217 152 496 19 59 32 112 29
116 -2 4 -32 6 -66 6 l-62 -1 -62 -215 c-34 -118 -64 -221 -66 -229 -5 -14
-43 98 -110 324 -18 61 -38 113 -44 118 -5 4 -26 6 -45 5 -40 -3 -32 15 -121
-270 -29 -93 -56 -168 -61 -168 -4 0 -8 5 -8 12 0 6 -11 48 -25 92 -13 45 -40
135 -60 200 -19 66 -36 121 -38 122 -1 1 -33 5 -71 9 -64 7 -68 6 -62 -11z"/>
<path d="M4195 2057 c-68 -23 -101 -44 -148 -97 -56 -62 -77 -121 -77 -219 0
-139 56 -233 173 -291 170 -83 376 -22 457 136 22 43 25 62 25 149 -1 115 -17
165 -80 233 -56 63 -131 95 -229 99 -49 2 -97 -2 -121 -10z m188 -121 c73 -30
111 -109 105 -216 -3 -53 -9 -76 -31 -109 -67 -101 -211 -107 -299 -14 -37 39
-50 78 -50 150 -1 124 71 203 184 203 32 0 73 -6 91 -14z"/>
<path d="M5076 2062 c-3 -3 -6 -146 -6 -319 l0 -313 65 0 65 0 0 110 0 111 62
-3 62 -3 63 -107 64 -108 80 0 c93 0 93 -13 -4 129 l-65 95 37 18 c72 36 109
124 91 218 -5 25 -9 48 -10 52 -1 24 -76 88 -118 102 -47 15 -374 31 -386 18z
m306 -124 c63 -19 94 -76 72 -133 -13 -34 -78 -55 -169 -55 l-85 0 0 100 0
100 71 0 c40 0 89 -5 111 -12z"/>
<path d="M6020 2060 c-1 -3 -2 -146 -3 -317 l-2 -313 228 0 227 0 0 55 0 55
-165 0 -165 0 0 263 0 262 -60 0 c-33 0 -60 -2 -60 -5z"/>
<path d="M6860 1747 l0 -319 178 4 c177 3 177 3 244 36 114 56 168 145 168
276 0 99 -24 163 -84 222 -79 79 -127 93 -335 96 l-171 3 0 -318z m327 188
c167 -50 180 -303 18 -376 -29 -13 -64 -19 -127 -19 l-88 0 0 198 c0 109 3
202 7 205 12 13 139 7 190 -8z"/>
</g>
</svg>
